<?xml version="1.0" encoding="UTF-8"?><svg id="Layer_2" xmlns="http://www.w3.org/2000/svg" viewBox="0 0 947.65 145.86"><defs><style>.cls-1{fill:#00ace8;}.cls-1,.cls-2{stroke-width:0px;}.cls-2{fill:#e52931;}</style></defs><g id="Layer_1-2"><path class="cls-2" d="M550.07,49.93h-19.55v-14.16h54.97v14.16h-19.55v59.93h-15.87v-59.93Z"/><polygon class="cls-2" points="499.55 109.86 515.43 109.86 515.43 49.93 499.55 49.96 499.55 109.86"/><polygon class="cls-2" points="499.55 35.78 483.65 35.78 483.65 49.96 490.89 49.96 497.31 49.96 499.55 49.96 499.55 35.78"/><polygon class="cls-1" points="0 49.95 0 35.78 50.76 35.78 50.76 49.95 19.46 95.2 19.46 95.63 50.76 95.63 50.76 109.8 0 109.8 0 95.63 31.19 50.37 31.19 49.95 0 49.95"/><polygon class="cls-1" points="7.82 14.81 22.21 14.81 26.75 20.73 31.3 14.81 45.68 14.81 35.64 28.76 17.87 28.76 7.82 14.81"/><path class="cls-1" d="M98.58,109.8h-15.86v-59.85h15.86v59.85Z"/><path class="cls-1" d="M392.39,49.95h-32.25v15.93h26.58v14.17h-26.58v15.58h32.25v14.17h-48.11V35.78h48.11v14.17Z"/><path class="cls-1" d="M233.47,49.95h-32.25v15.93h26.58v14.17h-26.58v15.58h32.25v14.17h-48.11V35.78h48.11v14.17Z"/><rect class="cls-1" x="66.86" y="35.78" width="15.86" height="14.17"/><path class="cls-1" d="M130.84,35.78v14.17h17.45v40.92c0,2.86-1.9,4.76-4.76,4.76h-7.93c-2.85,0-4.76-1.9-4.76-4.76v-6.48h-15.86v7.43c0,10.68,7.3,17.98,17.98,17.98h13.22c10.68,0,17.98-7.3,17.98-17.98v-56.04h-33.31Z"/><polygon class="cls-1" points="307.75 35.78 289.57 77.76 289.14 77.76 271.06 35.78 254.67 35.78 254.67 109.8 270.53 109.8 270.53 69.51 271.06 69.51 282.44 95.63 295.38 95.63 306.69 69.51 307.22 69.51 307.22 109.8 323.09 109.8 323.09 35.78 307.75 35.78"/><path class="cls-1" d="M456.5,49.73l.02-18.36c0-14.98,2.25-17.21,15.62-17.21V0h-3.36C448,0,440.63,5.4,440.63,26.81v21.86c0,12.67-3.97,16.84-15.62,17.14v7.09h0v.06h0v7.09c11.65.29,15.62,4.47,15.62,17.14v21.86c0,21.41,7.37,26.81,28.16,26.81h3.36v-14.17c-13.38,0-15.62-2.23-15.62-17.21l-.02-18.36c0-11.97-2.61-18.05-8.77-21.51-.86-.48-2.13-1.08-3.55-1.66,1.42-.58,2.69-1.24,3.55-1.72,6.16-3.45,8.77-9.54,8.77-21.51Z"/><path class="cls-1" d="M612.63,49.73l-.02-18.36c0-14.98-2.25-17.21-15.62-17.21V0h3.36c20.79,0,28.16,5.4,28.16,26.81v21.86c0,12.67,3.97,16.84,15.62,17.14v7.09h0v.06h0v7.09c-11.65.29-15.62,4.47-15.62,17.14v21.86c0,21.41-7.37,26.81-28.16,26.81h-3.36v-14.17c13.38,0,15.62-2.23,15.62-17.21l.02-18.36c0-11.97,2.61-18.05,8.77-21.51.86-.48,2.13-1.08,3.55-1.66-1.42-.58-2.69-1.24-3.55-1.72-6.16-3.45-8.77-9.54-8.77-21.51Z"/><path class="cls-2" d="M710.5,58.21v-3.49c0-2.86-1.9-4.76-4.76-4.76h-8.35c-2.86,0-4.76,1.9-4.76,4.76v3.59h-15.86v-4.55c0-10.68,7.29-17.97,17.97-17.97h13.64c10.68,0,17.97,7.29,17.97,17.97v5.08c0,5.39-2.43,9.83-5.5,13l-23.26,23.37v.42h29.29v14.17h-50.12v-14.17l30.03-29.71c2.64-2.43,3.7-4.76,3.7-7.72Z"/><path class="cls-2" d="M765.48,109.8c-10.68,0-17.97-7.29-17.97-17.97v-38.06c0-10.68,7.3-17.97,17.97-17.97h16.39c10.68,0,17.97,7.29,17.97,17.97v38.06c0,10.68-7.3,17.97-17.97,17.97h-16.39ZM783.98,90.88v-36.16c0-2.86-1.9-4.76-4.76-4.76h-11.1c-2.85,0-4.76,1.9-4.76,4.76v36.16c0,2.86,1.9,4.76,4.76,4.76h11.1c2.85,0,4.76-1.9,4.76-4.76Z"/><path class="cls-2" d="M854.19,58.21v-3.49c0-2.86-1.9-4.76-4.76-4.76h-8.35c-2.86,0-4.76,1.9-4.76,4.76v3.59h-15.86v-4.55c0-10.68,7.29-17.97,17.97-17.97h13.64c10.68,0,17.97,7.29,17.97,17.97v5.08c0,5.39-2.43,9.83-5.5,13l-23.26,23.37v.42h29.29v14.17h-50.12v-14.17l30.03-29.71c2.64-2.43,3.7-4.76,3.7-7.72Z"/><path class="cls-2" d="M938.14,35.79v47.89h9.52v14.17h-9.52v11.95h-15.86v-11.95h-35.31v-14.17l33.52-47.89h17.66ZM921.75,56.52l-18.71,26.75v.42h19.24v-27.17h-.53Z"/></g></svg>